<?xml version="1.0" encoding="UTF-8"?>
<svg width="24px" height="24px" viewBox="0 0 24 24" version="1.1" xmlns="http://www.w3.org/2000/svg" xmlns:xlink="http://www.w3.org/1999/xlink">
    <!-- Generator: Sketch 46 (44423) - http://www.bohemiancoding.com/sketch -->
    <title>chat</title>
    <desc>Created with Sketch.</desc>
    <defs></defs>
    <g id="Symbols" stroke="none" stroke-width="1" fill="none" fill-rule="evenodd">
        <g id="chat">
            <g id="ic/chat" transform="translate(3.000000, 3.000000)">
                <polygon id="Bounds" points="0 0 18 0 18 18 0 18"></polygon>
                <path d="M15,1.5 L3,1.5 C2.175,1.5 1.5075,2.175 1.5075,3 L1.5,16.5 L4.5,13.5 L15,13.5 C15.825,13.5 16.5,12.825 16.5,12 L16.5,3 C16.5,2.175 15.825,1.5 15,1.5 L15,1.5 Z M4.5,6.75 L13.5,6.75 L13.5,8.25 L4.5,8.25 L4.5,6.75 L4.5,6.75 Z M10.5,10.5 L4.5,10.5 L4.5,9 L10.5,9 L10.5,10.5 L10.5,10.5 Z M13.5,6 L4.5,6 L4.5,4.5 L13.5,4.5 L13.5,6 L13.5,6 Z" id="Icon" fill="#FFFFFF"></path>
            </g>
        </g>
    </g>
</svg>