<?xml version="1.0" encoding="UTF-8"?>
<svg width="17px" height="24px" viewBox="0 0 17 24" version="1.1" xmlns="http://www.w3.org/2000/svg" xmlns:xlink="http://www.w3.org/1999/xlink">
    <!-- Generator: Sketch 43.2 (39069) - http://www.bohemiancoding.com/sketch -->
    <title>shop</title>
    <desc>Created with Sketch.</desc>
    <defs>
        <linearGradient x1="0%" y1="0%" x2="100%" y2="100%" id="linearGradient-1">
            <stop stop-color="#0072A2" offset="0%"></stop>
            <stop stop-color="#002E7B" offset="100%"></stop>
        </linearGradient>
    </defs>
    <g id="Page-1" stroke="none" stroke-width="1" fill="none" fill-rule="evenodd">
        <g id="shop" transform="translate(-4.000000, 0.000000)">
            <polygon id="Shape" points="0 0 24 0 24 24 0 24"></polygon>
            <g id="Group-8" transform="translate(4.000000, 0.000000)">
                <path d="M8.4,0 C3.768,0 0,3.768 0,8.4 C0,14.7 8.4,24 8.4,24 C8.4,24 16.8,14.7 16.8,8.4 C16.8,3.768 13.032,0 8.4,0 Z" id="Shape" fill="url(#linearGradient-1)" fill-rule="nonzero"></path>
                <g id="Navigation-bt" transform="translate(1.000000, 2.000000)">
                    <g id="ic_store_black_24px">
                        <g id="Group">
                            <polygon id="Shape" points="0 0 14 0 14 14 0 14"></polygon>
                            <path d="M11.6666667,2.33333333 L2.33333333,2.33333333 L2.33333333,3.5 L11.6666667,3.5 L11.6666667,2.33333333 Z M12.25,8.16666667 L12.25,7 L11.6666667,4.08333333 L2.33333333,4.08333333 L1.75,7 L1.75,8.16666667 L2.33333333,8.16666667 L2.33333333,11.6666667 L8.16666667,11.6666667 L8.16666667,8.16666667 L10.5,8.16666667 L10.5,11.6666667 L11.6666667,11.6666667 L11.6666667,8.16666667 L12.25,8.16666667 Z M7,10.5 L3.5,10.5 L3.5,8.16666667 L7,8.16666667 L7,10.5 Z" id="Shape" fill="#FFFFFF" fill-rule="nonzero"></path>
                        </g>
                    </g>
                </g>
            </g>
        </g>
    </g>
</svg>