<?xml version="1.0" encoding="UTF-8"?>
<svg width="753px" height="121px" viewBox="0 0 753 121" version="1.1" xmlns="http://www.w3.org/2000/svg" xmlns:xlink="http://www.w3.org/1999/xlink">
    <!-- Generator: Sketch 46.1 (44463) - http://www.bohemiancoding.com/sketch -->
    <title>producthunt</title>
    <desc>Created with Sketch.</desc>
    <defs></defs>
    <g id="Page-1" stroke="none" stroke-width="1" fill="none" fill-rule="evenodd">
        <g id="producthunt" fill-rule="nonzero" fill="#100F0D">
            <g id="Group">
                <path d="M121.396,60.785 C121.396,94.055 94.413,121 61.099,121 C27.784,121 0.802,94.054 0.802,60.785 C0.802,27.515 27.784,0.57 61.098,0.57 C94.411,0.57 121.394,27.516 121.394,60.785 M69.14,30.678 L39.995,30.678 L39.995,90.893 L52.055,90.893 L52.055,72.828 L69.138,72.828 C80.794,72.828 90.241,63.394 90.241,51.753 C90.241,40.111 80.794,30.678 69.137,30.678" id="Shape"></path>
                <path d="M69.14,60.785 L52.055,60.785 L52.055,42.72 L69.139,42.72 C74.112,42.72 78.183,46.785 78.183,51.753 C78.183,56.721 74.113,60.785 69.138,60.785 L69.14,60.785 Z M222.304,49.196 C222.304,43.896 218.204,40.684 212.894,40.684 L198.66,40.684 L198.66,57.627 L212.895,57.627 C218.203,57.627 222.305,54.415 222.305,49.197 L222.304,49.196 Z M185.23,93.12 L185.23,28.88 L214.825,28.88 C228.577,28.88 236.055,38.114 236.055,49.196 C236.055,60.196 228.495,69.432 214.825,69.432 L198.74,69.432 L198.74,93.12 L185.23,93.12 L185.23,93.12 Z M244.178,93.12 L244.178,46.305 L256.242,46.305 L256.242,52.488 C259.539,48.553 265.168,45.181 270.878,45.181 L270.878,56.906 C269.993,56.746 268.948,56.666 267.581,56.666 C263.561,56.666 258.253,58.913 256.323,61.884 L256.323,93.2 L244.179,93.2 L244.179,93.12 L244.178,93.12 Z M311.33,69.11 C311.33,62.044 307.148,55.86 299.588,55.86 C292.108,55.86 287.928,62.044 287.928,69.11 C287.928,76.337 292.108,82.44 299.588,82.44 C307.148,82.44 311.33,76.257 311.33,69.11 L311.33,69.11 Z M275.382,69.11 C275.382,56.182 284.469,45.18 299.508,45.18 C314.708,45.18 323.795,56.182 323.795,69.11 C323.795,82.04 314.707,93.12 299.508,93.12 C284.468,93.12 275.382,82.04 275.382,69.11 L275.382,69.11 Z M364.327,77.22 L364.327,61.08 C362.317,58.03 357.974,55.86 354.033,55.86 C347.117,55.86 342.373,61.24 342.373,69.11 C342.373,77.06 347.117,82.44 354.033,82.44 C357.973,82.44 362.316,80.272 364.327,77.22 Z M364.327,93.12 L364.327,86.134 C360.707,90.711 355.802,93.12 350.173,93.12 C338.673,93.12 329.907,84.448 329.907,69.11 C329.907,54.255 338.512,45.18 350.173,45.18 C355.561,45.18 360.708,47.43 364.327,52.167 L364.327,28.88 L376.47,28.88 L376.47,93.12 L364.327,93.12 Z M419.254,93.12 L419.254,86.214 C416.118,89.587 410.649,93.12 403.17,93.12 C393.118,93.12 388.373,87.66 388.373,78.746 L388.373,46.306 L400.436,46.306 L400.436,74.009 C400.436,80.351 403.733,82.439 408.88,82.439 C413.544,82.439 417.244,79.869 419.335,77.219 L419.335,46.306 L431.398,46.306 L431.398,93.121 L419.254,93.121 L419.254,93.12 Z M440.324,69.11 C440.324,55.138 450.538,45.18 464.611,45.18 C474.021,45.18 479.651,49.276 482.707,53.452 L474.827,60.839 C472.655,57.626 469.357,55.939 465.175,55.939 C457.857,55.939 452.791,61.239 452.791,69.189 C452.791,77.139 457.938,82.519 465.175,82.519 C469.357,82.519 472.655,80.592 474.825,77.541 L482.707,84.928 C479.651,89.103 474.022,93.278 464.612,93.278 C450.54,93.118 440.326,83.161 440.326,69.108 L440.324,69.11 Z M493.08,80.513 L493.08,56.743 L485.52,56.743 L485.52,46.226 L493.08,46.226 L493.08,33.778 L505.144,33.778 L505.144,46.305 L514.392,46.305 L514.392,56.825 L505.144,56.825 L505.144,77.38 C505.144,80.352 506.672,82.52 509.324,82.52 C511.094,82.52 512.864,81.878 513.507,81.075 L516.081,90.229 C514.311,91.834 511.096,93.199 506.029,93.199 C497.505,93.119 493.081,88.783 493.081,80.512 L493.08,80.513 Z M591.435,93.12 L591.435,65.416 L561.6,65.416 L561.6,93.12 L548.17,93.12 L548.17,28.88 L561.6,28.88 L561.6,53.693 L591.435,53.693 L591.435,28.88 L605.025,28.88 L605.025,93.12 L591.435,93.12 Z M648.05,93.12 L648.05,86.214 C644.915,89.587 639.446,93.12 631.967,93.12 C621.914,93.12 617.169,87.66 617.169,78.746 L617.169,46.306 L629.232,46.306 L629.232,74.009 C629.232,80.351 632.529,82.439 637.676,82.439 C642.34,82.439 646.04,79.869 648.13,77.219 L648.13,46.306 L660.195,46.306 L660.195,93.121 L648.05,93.121 L648.05,93.12 Z M702.898,93.12 L702.898,64.373 C702.898,58.029 699.601,55.861 694.454,55.861 C689.709,55.861 686.09,58.511 683.999,61.161 L683.999,93.121 L671.935,93.121 L671.935,46.305 L684,46.305 L684,52.167 C686.975,48.794 692.604,45.181 700.003,45.181 C710.136,45.181 714.961,50.883 714.961,59.716 L714.961,93.121 L702.9,93.121 L702.898,93.12 Z M729.437,80.513 L729.437,56.743 L721.877,56.743 L721.877,46.226 L729.437,46.226 L729.437,33.778 L741.5,33.778 L741.5,46.305 L750.748,46.305 L750.748,56.825 L741.5,56.825 L741.5,77.38 C741.5,80.352 743.028,82.52 745.682,82.52 C747.452,82.52 749.22,81.878 749.864,81.075 L752.437,90.229 C750.667,91.834 747.451,93.199 742.384,93.199 C733.86,93.119 729.437,88.783 729.437,80.512 L729.437,80.513 Z" id="Shape"></path>
            </g>
        </g>
    </g>
</svg>