<svg width="896" height="160" viewBox="0 0 896 160" xmlns="http://www.w3.org/2000/svg">
  <g fill="none" fill-rule="evenodd">
        <path d="M146.957 60.13h39.13v39.653-.522h78.783v39.653H146.435v-78.26h-39.13v78.782H67.65V60.652H28V21h118.957v39.13zm196.695 7.305v52.174h-19.304V67.434h-19.305V50.74h57.914v16.695h-19.305zm97.044 53.217c-15.13 0-24.522-9.913-24.522-27.13 0-15.652 8.348-26.61 24.522-26.61 9.913 0 15.652 4.697 19.826 12l-12 9.392c-2.61-4.695-4.174-6.782-7.826-6.782-4.696 0-6.783 4.695-6.783 12.52 0 7.828 2.61 12.523 7.304 12.523 3.13 0 5.74-2.087 8.87-6.782l11.478 8.87c-5.74 8.347-11.478 12-20.87 12zm61.043-1.043V90.39c0-6.78-2.088-8.347-5.74-8.347s-6.26 1.566-6.26 8.348v29.74H472V54.913l17.74-7.304v23.477c3.13-2.61 6.782-4.696 13.043-4.696 11.478 0 16.695 7.827 16.695 21.393v31.826h-17.74zm60 1.042c-20.35 0-31.305-15.13-31.305-35.478 0-22.435 13.043-35.478 31.826-35.478 17.218 0 23.48 7.304 28.175 20.347l-17.218 6.783c-2.608-6.26-4.695-10.435-10.956-10.435-7.825 0-11.477 7.827-11.477 18.784 0 10.435 3.13 18.783 11.478 18.783 6.262 0 8.35-3.13 12.523-9.914l16.174 8.348c-5.218 9.393-12.522 18.262-29.218 18.262zm72.52-33.39c-2.086-2.61-4.695-4.175-8.347-4.175-4.174 0-6.783 2.087-6.783 8.348v28.174h-17.74V67.956h17.74v3.652c3.13-3.132 6.26-4.697 10.957-4.697 3.652 0 6.26 1.044 8.348 2.087l-4.174 18.26zm42.262 32.347v-3.653c-3.13 2.608-6.783 4.695-13.044 4.695-11.478 0-16.695-7.826-16.695-21.39V67.956h17.74v29.217c0 6.783 2.086 8.348 5.738 8.348 3.653 0 5.74-1.565 5.74-8.348V67.957h17.74v51.652H676.52zm60.52.52V90.39c0-6.78-2.085-8.347-5.738-8.347-3.652 0-6.26 1.566-6.26 8.348v29.74h-17.74V67.957h17.74v3.652c3.13-2.61 6.782-4.697 13.043-4.697 11.478 0 16.696 7.826 16.696 21.39v31.827h-17.74zm52.697.522c-15.13 0-24.523-9.913-24.523-27.13 0-15.652 8.348-26.61 24.522-26.61 9.912 0 15.65 4.697 19.825 12l-12 9.392c-2.608-4.695-4.174-6.782-7.826-6.782-4.697 0-6.783 4.695-6.783 12.52 0 7.828 2.608 12.523 7.304 12.523 3.13 0 5.74-2.087 8.87-6.782l11.48 8.87c-6.262 8.347-12 12-20.87 12zm60.52-1.043V90.39c0-6.78-2.086-8.347-5.738-8.347-3.652 0-6.26 1.566-6.26 8.348v29.74h-17.74V54.913l17.74-7.304v23.477c3.13-2.61 6.78-4.696 13.042-4.696 11.48 0 16.696 7.827 16.696 21.393v31.826h-17.74zM186.088 60.65V21h78.783v39.652h-78.783zm198.26 19.305c-4.173 0-6.26 2.608-6.782 7.826h14.61c-1.045-5.218-2.61-7.826-7.827-7.826zm23.48 18.782h-30.262c.522 5.738 4.174 8.347 8.87 8.347 4.695 0 8.348-1.044 13.565-3.652l6.783 11.478c-6.26 3.652-13.044 5.74-20.87 5.74-15.652 0-24-10.957-24-27.13 0-17.74 9.913-27.132 23.478-27.132 14.088 0 22.958 9.393 22.958 28.697-.522 1.565-.522 2.61-.522 3.652z" fill="#000" fill-rule="nonzero" />
  </g>
</svg>