<?xml version="1.0" encoding="UTF-8"?>
<svg width="135px" height="40px" viewBox="0 0 135 40" version="1.1" xmlns="http://www.w3.org/2000/svg" xmlns:xlink="http://www.w3.org/1999/xlink">
  <defs></defs>
  <g id="Page-1" stroke="none" stroke-width="1" fill="none" fill-rule="evenodd">
    <g id="app-store" fill-rule="nonzero">
      <path d="M130.197,40 L4.73,40 C2.12,40 0,37.872 0,35.267 L0,4.727 C0,2.12 2.122,0 4.73,0 L130.197,0 C132.803,0 135,2.12 135,4.726 L135,35.266 C135,37.872 132.803,40 130.197,40 Z" id="Shape" fill="#A6A6A6"></path>
      <path d="M134.032,35.268 C134.032,37.384 132.318,39.098 130.198,39.098 L4.728,39.098 C2.61,39.098 0.89,37.384 0.89,35.268 L0.89,4.725 C0.89,2.61 2.61,0.89 4.73,0.89 L130.197,0.89 C132.317,0.89 134.031,2.61 134.031,4.725 L134.041,35.268 L134.032,35.268 Z" id="Shape" fill="#000000"></path>
      <path d="M30.128,19.784 C30.098,16.561 32.768,14.994 32.888,14.92 C31.378,12.717 29.036,12.416 28.213,12.392 C26.246,12.185 24.338,13.569 23.336,13.569 C22.314,13.569 20.771,12.409 19.108,12.439 C16.968,12.469 14.966,13.709 13.868,15.629 C11.602,19.549 13.292,25.319 15.463,28.489 C16.549,30.039 17.818,31.769 19.479,31.709 C21.099,31.639 21.709,30.669 23.669,30.669 C25.609,30.669 26.179,31.699 27.869,31.659 C29.609,31.629 30.709,30.099 31.759,28.529 C33.009,26.749 33.519,24.999 33.539,24.909 C33.499,24.899 30.149,23.619 30.119,19.759 L30.128,19.784 Z M26.928,10.306 C27.802,9.213 28.4,7.726 28.234,6.216 C26.969,6.273 25.387,7.092 24.476,8.161 C23.67,9.111 22.95,10.651 23.136,12.101 C24.556,12.211 26.016,11.391 26.928,10.311 L26.928,10.306 Z M53.645,31.504 L51.375,31.504 L50.13,27.594 L45.806,27.594 L44.621,31.504 L42.411,31.504 L46.701,18.196 L49.351,18.196 L53.661,31.504 L53.645,31.504 Z M49.755,25.954 L48.63,22.48 C48.51,22.125 48.288,21.29 47.96,19.973 L47.92,19.973 C47.788,20.539 47.577,21.375 47.287,22.48 L46.182,25.955 L49.755,25.955 L49.755,25.954 Z M64.662,26.588 C64.662,28.22 64.222,29.51 63.339,30.458 C62.549,31.3 61.559,31.721 60.389,31.721 C59.119,31.721 58.219,31.271 57.659,30.361 L57.619,30.361 L57.619,35.421 L55.5,35.421 L55.5,25.07 C55.5,24.044 55.473,22.99 55.42,21.91 L57.296,21.91 L57.416,23.432 L57.456,23.432 C58.166,22.282 59.246,21.712 60.693,21.712 C61.825,21.712 62.77,22.159 63.526,23.052 C64.284,23.95 64.662,25.128 64.662,26.589 L64.662,26.588 Z M62.49,26.666 C62.49,25.732 62.28,24.962 61.858,24.356 C61.398,23.724 60.778,23.408 60.002,23.408 C59.476,23.408 58.998,23.584 58.572,23.931 C58.142,24.281 57.862,24.741 57.732,25.311 C57.666,25.581 57.632,25.791 57.632,25.961 L57.632,27.561 C57.632,28.261 57.847,28.851 58.275,29.331 C58.703,29.811 59.259,30.051 59.943,30.051 C60.746,30.051 61.371,29.741 61.818,29.131 C62.266,28.511 62.49,27.701 62.49,26.681 L62.49,26.666 Z M75.7,26.588 C75.7,28.22 75.258,29.51 74.375,30.458 C73.585,31.3 72.605,31.721 71.435,31.721 C70.17,31.721 69.262,31.271 68.71,30.361 L68.67,30.361 L68.67,35.421 L66.538,35.421 L66.538,25.07 C66.538,24.044 66.511,22.99 66.458,21.91 L68.334,21.91 L68.454,23.432 L68.494,23.432 C69.204,22.282 70.282,21.712 71.731,21.712 C72.871,21.712 73.811,22.159 74.571,23.052 C75.331,23.95 75.711,25.128 75.711,26.589 L75.7,26.588 Z M73.527,26.666 C73.527,25.732 73.317,24.962 72.894,24.356 C72.434,23.724 71.816,23.408 71.039,23.408 C70.509,23.408 70.029,23.584 69.599,23.931 C69.169,24.281 68.889,24.741 68.759,25.311 C68.689,25.581 68.659,25.791 68.659,25.961 L68.659,27.561 C68.659,28.261 68.869,28.851 69.299,29.331 C69.729,29.811 70.279,30.051 70.969,30.051 C71.769,30.051 72.399,29.741 72.839,29.131 C73.289,28.511 73.509,27.701 73.509,26.681 L73.527,26.666 Z M88.04,27.772 C88.04,28.904 87.646,29.825 86.857,30.536 C85.99,31.313 84.783,31.701 83.232,31.701 C81.8,31.701 80.652,31.431 79.782,30.881 L80.277,29.111 C81.213,29.681 82.24,29.961 83.359,29.961 C84.159,29.961 84.779,29.781 85.229,29.421 C85.669,29.061 85.899,28.581 85.899,27.971 C85.899,27.431 85.709,26.981 85.339,26.611 C84.969,26.241 84.359,25.901 83.499,25.581 C81.169,24.711 79.999,23.441 79.999,21.771 C79.999,20.681 80.409,19.781 81.219,19.081 C82.029,18.391 83.119,18.041 84.479,18.041 C85.689,18.041 86.689,18.251 87.499,18.671 L86.959,20.411 C86.209,20.001 85.359,19.801 84.409,19.801 C83.659,19.801 83.069,19.981 82.649,20.351 C82.289,20.681 82.109,21.081 82.109,21.561 C82.109,22.091 82.309,22.521 82.719,22.871 C83.069,23.191 83.719,23.531 84.659,23.901 C85.799,24.361 86.639,24.901 87.189,25.521 C87.729,26.141 87.999,26.911 87.999,27.831 L88.04,27.772 Z M95.088,23.508 L92.738,23.508 L92.738,28.168 C92.738,29.352 93.152,29.944 93.982,29.944 C94.362,29.944 94.679,29.911 94.929,29.844 L94.979,31.464 C94.559,31.621 93.999,31.7 93.319,31.7 C92.469,31.7 91.819,31.443 91.339,30.93 C90.859,30.416 90.629,29.554 90.629,28.343 L90.629,23.506 L89.229,23.506 L89.229,21.906 L90.629,21.906 L90.629,20.15 L92.719,19.517 L92.719,21.907 L95.069,21.907 L95.069,23.507 L95.088,23.508 Z M105.69,26.628 C105.69,28.102 105.27,29.313 104.427,30.26 C103.544,31.235 102.372,31.72 100.911,31.72 C99.511,31.72 98.391,31.254 97.551,30.32 C96.711,29.386 96.301,28.207 96.301,26.786 C96.301,25.299 96.731,24.081 97.601,23.134 C98.461,22.186 99.631,21.712 101.091,21.712 C102.501,21.712 103.631,22.179 104.491,23.114 C105.311,24.021 105.721,25.192 105.721,26.627 L105.69,26.628 Z M103.48,26.698 C103.48,25.811 103.29,25.052 102.907,24.418 C102.46,23.652 101.821,23.268 100.993,23.268 C100.136,23.268 99.485,23.653 99.038,24.418 C98.655,25.052 98.466,25.823 98.466,26.735 C98.466,27.62 98.656,28.379 99.038,29.011 C99.498,29.781 100.143,30.161 100.974,30.161 C101.788,30.161 102.427,29.771 102.888,28.991 C103.281,28.351 103.478,27.581 103.478,26.701 L103.48,26.698 Z M112.62,23.783 C112.41,23.743 112.185,23.723 111.95,23.723 C111.2,23.723 110.62,24.007 110.21,24.573 C109.856,25.073 109.678,25.706 109.678,26.469 L109.678,31.499 L107.548,31.499 L107.568,24.919 C107.568,23.809 107.54,22.799 107.488,21.899 L109.344,21.899 L109.422,23.729 L109.482,23.729 C109.706,23.099 110.062,22.589 110.547,22.209 C111.022,21.859 111.535,21.689 112.087,21.689 C112.285,21.689 112.463,21.699 112.621,21.729 L112.621,23.759 L112.62,23.783 Z M122.156,26.253 C122.156,26.633 122.131,26.956 122.078,27.219 L115.682,27.219 C115.707,28.159 116.016,28.889 116.61,29.389 C117.15,29.829 117.846,30.059 118.702,30.059 C119.649,30.059 120.512,29.909 121.29,29.599 L121.624,31.079 C120.716,31.469 119.644,31.669 118.407,31.669 C116.919,31.669 115.751,31.229 114.901,30.349 C114.061,29.469 113.631,28.299 113.631,26.819 C113.631,25.369 114.031,24.169 114.821,23.199 C115.651,22.169 116.771,21.659 118.181,21.659 C119.571,21.659 120.611,22.169 121.321,23.199 C121.891,24.009 122.171,25.019 122.171,26.219 L122.156,26.253 Z M120.123,25.699 C120.137,25.059 119.998,24.519 119.709,24.059 C119.339,23.459 118.769,23.169 118.009,23.169 C117.309,23.169 116.739,23.459 116.309,24.039 C115.949,24.499 115.739,25.049 115.679,25.689 L120.119,25.689 L120.123,25.699 Z M49.05,10.01 C49.05,11.186 48.697,12.072 47.992,12.667 C47.339,13.217 46.412,13.491 45.209,13.491 C44.609,13.491 44.099,13.471 43.669,13.421 L43.669,6.99 C44.219,6.9 44.819,6.852 45.469,6.852 C46.609,6.852 47.479,7.102 48.059,7.599 C48.709,8.159 49.039,8.959 49.039,10.009 L49.05,10.01 Z M47.945,10.038 C47.945,9.275 47.743,8.69 47.339,8.282 C46.929,7.875 46.339,7.672 45.559,7.672 C45.229,7.672 44.949,7.692 44.709,7.739 L44.709,12.619 C44.839,12.639 45.069,12.649 45.419,12.649 C46.219,12.649 46.839,12.419 47.269,11.979 C47.699,11.539 47.919,10.879 47.919,10.029 L47.945,10.038 Z M54.91,11.038 C54.91,11.762 54.702,12.358 54.288,12.822 C53.854,13.302 53.278,13.54 52.561,13.54 C51.871,13.54 51.321,13.31 50.911,12.85 C50.501,12.392 50.301,11.813 50.301,11.115 C50.301,10.385 50.511,9.785 50.941,9.321 C51.371,8.857 51.941,8.631 52.651,8.631 C53.341,8.631 53.901,8.861 54.321,9.321 C54.721,9.771 54.921,10.351 54.921,11.051 L54.91,11.038 Z M53.822,11.071 C53.822,10.641 53.728,10.271 53.542,9.961 C53.322,9.591 53.008,9.401 52.602,9.401 C52.18,9.401 51.86,9.591 51.64,9.971 C51.452,10.281 51.36,10.661 51.36,11.111 C51.36,11.551 51.453,11.921 51.64,12.231 C51.867,12.611 52.183,12.801 52.59,12.801 C52.99,12.801 53.305,12.611 53.53,12.231 C53.725,11.921 53.822,11.541 53.822,11.101 L53.822,11.071 Z M62.765,8.721 L61.29,13.441 L60.33,13.441 L59.72,11.401 C59.564,10.891 59.438,10.381 59.34,9.881 L59.32,9.881 C59.23,10.401 59.104,10.911 58.942,11.411 L58.292,13.461 L57.322,13.461 L55.935,8.741 L57.012,8.741 L57.545,10.981 C57.675,11.511 57.78,12.021 57.865,12.501 L57.885,12.501 C57.962,12.111 58.091,11.611 58.273,11.001 L58.943,8.751 L59.796,8.751 L60.436,10.961 C60.592,11.501 60.718,12.011 60.816,12.511 L60.844,12.511 C60.914,12.031 61.022,11.511 61.164,10.961 L61.736,8.761 L62.766,8.761 L62.765,8.721 Z M68.198,13.441 L67.15,13.441 L67.15,10.741 C67.15,9.911 66.834,9.491 66.2,9.491 C65.89,9.491 65.638,9.611 65.443,9.841 C65.25,10.071 65.153,10.341 65.153,10.651 L65.153,13.451 L64.103,13.451 L64.103,10.081 C64.103,9.671 64.091,9.221 64.066,8.731 L64.986,8.731 L65.036,9.471 L65.066,9.471 C65.186,9.241 65.369,9.051 65.608,8.901 C65.892,8.731 66.21,8.641 66.558,8.641 C66.998,8.641 67.364,8.791 67.655,9.071 C68.017,9.421 68.198,9.941 68.198,10.631 L68.198,13.461 L68.198,13.441 Z M71.088,13.441 L70.04,13.441 L70.04,6.56 L71.088,6.56 L71.088,13.437 L71.088,13.441 Z M77.258,11.051 C77.258,11.781 77.051,12.371 76.638,12.841 C76.203,13.321 75.628,13.561 74.91,13.561 C74.217,13.561 73.666,13.331 73.256,12.871 C72.846,12.421 72.641,11.841 72.641,11.141 C72.641,10.411 72.861,9.811 73.281,9.351 C73.701,8.891 74.281,8.651 74.991,8.651 C75.691,8.651 76.241,8.881 76.661,9.341 C77.061,9.791 77.261,10.361 77.261,11.071 L77.258,11.051 Z M76.17,11.091 C76.17,10.661 76.076,10.291 75.89,9.981 C75.67,9.611 75.356,9.421 74.95,9.421 C74.528,9.421 74.208,9.611 73.99,9.991 C73.8,10.301 73.708,10.681 73.708,11.131 C73.708,11.571 73.802,11.941 73.988,12.251 C74.216,12.631 74.532,12.821 74.94,12.821 C75.34,12.821 75.653,12.631 75.88,12.251 C76.074,11.931 76.17,11.557 76.17,11.121 L76.17,11.091 Z M82.33,13.461 L81.39,13.461 L81.31,12.921 L81.282,12.921 C80.96,13.351 80.502,13.571 79.905,13.571 C79.46,13.571 79.1,13.431 78.829,13.141 C78.579,12.881 78.459,12.561 78.459,12.181 C78.459,11.611 78.699,11.171 79.179,10.861 C79.659,10.561 80.339,10.411 81.209,10.421 L81.209,10.331 C81.209,9.711 80.879,9.401 80.229,9.401 C79.759,9.401 79.349,9.521 78.999,9.751 L78.779,9.061 C79.219,8.791 79.759,8.661 80.389,8.661 C81.619,8.661 82.239,9.311 82.239,10.611 L82.239,12.351 C82.239,12.821 82.259,13.201 82.309,13.471 L82.33,13.461 Z M81.242,11.841 L81.242,11.111 C80.086,11.091 79.508,11.411 79.508,12.061 C79.508,12.311 79.574,12.491 79.708,12.611 C79.844,12.731 80.016,12.801 80.221,12.801 C80.451,12.801 80.671,12.731 80.871,12.581 C81.071,12.441 81.191,12.251 81.241,12.021 C81.251,11.971 81.261,11.911 81.261,11.841 L81.242,11.841 Z M88.285,13.461 L87.355,13.461 L87.305,12.711 L87.277,12.711 C86.98,13.291 86.474,13.571 85.763,13.571 C85.195,13.571 84.723,13.351 84.347,12.901 C83.971,12.451 83.785,11.881 83.785,11.171 C83.785,10.411 83.988,9.791 84.395,9.321 C84.791,8.881 85.275,8.661 85.851,8.661 C86.491,8.661 86.931,8.881 87.181,9.301 L87.201,9.301 L87.201,6.56 L88.251,6.56 L88.251,12.168 C88.251,12.628 88.261,13.05 88.291,13.438 L88.285,13.461 Z M87.2,11.461 L87.2,10.681 C87.2,10.541 87.19,10.431 87.17,10.351 C87.11,10.101 86.984,9.891 86.79,9.721 C86.596,9.551 86.36,9.471 86.09,9.471 C85.7,9.471 85.393,9.621 85.168,9.931 C84.945,10.241 84.832,10.641 84.832,11.121 C84.832,11.591 84.939,11.971 85.154,12.261 C85.381,12.571 85.687,12.731 86.07,12.731 C86.414,12.731 86.69,12.601 86.898,12.341 C87.1,12.101 87.198,11.821 87.198,11.481 L87.2,11.461 Z M97.248,11.051 C97.248,11.781 97.041,12.371 96.628,12.841 C96.193,13.321 95.618,13.561 94.9,13.561 C94.21,13.561 93.658,13.331 93.246,12.871 C92.836,12.421 92.631,11.841 92.631,11.141 C92.631,10.411 92.851,9.811 93.271,9.351 C93.691,8.891 94.271,8.661 94.991,8.661 C95.681,8.661 96.241,8.891 96.661,9.351 C97.061,9.801 97.261,10.371 97.261,11.081 L97.248,11.051 Z M96.162,11.091 C96.162,10.661 96.068,10.291 95.882,9.981 C95.66,9.611 95.348,9.421 94.94,9.421 C94.52,9.421 94.2,9.611 93.98,9.981 C93.79,10.291 93.698,10.671 93.698,11.121 C93.698,11.561 93.792,11.931 93.978,12.241 C94.206,12.621 94.522,12.811 94.93,12.811 C95.33,12.811 95.645,12.621 95.87,12.241 C96.064,11.925 96.162,11.549 96.162,11.111 L96.162,11.091 Z M102.882,13.461 L101.836,13.461 L101.836,10.761 C101.836,9.931 101.52,9.511 100.886,9.511 C100.574,9.511 100.323,9.631 100.129,9.861 C99.935,10.091 99.829,10.361 99.829,10.671 L99.829,13.471 L98.779,13.471 L98.779,10.1 C98.779,9.683 98.769,9.234 98.739,8.75 L99.659,8.75 L99.709,9.485 L99.739,9.485 C99.859,9.255 100.039,9.069 100.279,8.915 C100.559,8.742 100.879,8.653 101.229,8.653 C101.669,8.653 102.029,8.798 102.329,9.083 C102.689,9.433 102.869,9.953 102.869,10.653 L102.869,13.473 L102.882,13.461 Z M109.936,9.531 L108.782,9.531 L108.782,11.821 C108.782,12.411 108.987,12.701 109.392,12.701 C109.582,12.701 109.737,12.691 109.86,12.651 L109.887,13.451 C109.68,13.521 109.407,13.561 109.073,13.561 C108.659,13.561 108.337,13.431 108.103,13.181 C107.87,12.931 107.753,12.501 107.753,11.911 L107.753,9.511 L107.065,9.511 L107.065,8.721 L107.755,8.721 L107.755,7.861 L108.781,7.551 L108.781,8.721 L109.941,8.721 L109.941,9.511 L109.936,9.531 Z M115.484,13.461 L114.434,13.461 L114.434,10.781 C114.434,9.941 114.119,9.511 113.486,9.511 C113,9.511 112.668,9.761 112.486,10.251 C112.456,10.351 112.436,10.481 112.436,10.631 L112.436,13.471 L111.39,13.471 L111.39,6.571 L112.437,6.571 L112.437,9.4 L112.457,9.4 C112.787,8.883 113.26,8.625 113.873,8.625 C114.307,8.625 114.666,8.767 114.951,9.052 C115.311,9.402 115.491,9.932 115.491,10.632 L115.491,13.432 L115.484,13.461 Z M121.207,10.881 C121.207,11.071 121.193,11.231 121.167,11.361 L118.025,11.361 C118.039,11.831 118.189,12.181 118.48,12.431 C118.746,12.651 119.09,12.761 119.51,12.761 C119.974,12.761 120.398,12.691 120.78,12.541 L120.944,13.271 C120.497,13.471 119.971,13.561 119.362,13.561 C118.632,13.561 118.057,13.351 117.642,12.921 C117.222,12.491 117.016,11.911 117.016,11.191 C117.016,10.481 117.209,9.891 117.598,9.421 C118.004,8.921 118.553,8.671 119.246,8.671 C119.924,8.671 120.439,8.927 120.786,9.431 C121.068,9.831 121.206,10.331 121.206,10.919 L121.207,10.881 Z M120.207,10.611 C120.215,10.301 120.147,10.031 120.004,9.811 C119.822,9.521 119.544,9.381 119.17,9.381 C118.828,9.381 118.55,9.531 118.336,9.811 C118.162,10.041 118.059,10.311 118.026,10.631 L120.206,10.631 L120.207,10.611 Z" id="Shape" fill="#FFFFFF"></path>
    </g>
  </g>
</svg>