<?xml version="1.0" encoding="UTF-8"?>
<svg width="18px" height="25px" viewBox="0 0 18 25" version="1.1" xmlns="http://www.w3.org/2000/svg" xmlns:xlink="http://www.w3.org/1999/xlink">
    <!-- Generator: Sketch 43.2 (39069) - http://www.bohemiancoding.com/sketch -->
    <title>atm</title>
    <desc>Created with Sketch.</desc>
    <defs>
        <linearGradient x1="0%" y1="0%" x2="100%" y2="100%" id="linearGradient-1">
            <stop stop-color="#0072A2" offset="0%"></stop>
            <stop stop-color="#002E7B" offset="100%"></stop>
        </linearGradient>
        <path d="M12.4907887,6.25248 C12.3567019,4.680864 11.1067317,4.149072 9.52692667,3.992976 L9.53410277,1.813536 L8.30991334,1.808784 L8.30287013,3.930768 C7.98100878,3.929616 7.65210422,3.935232 7.32519301,3.940848 L7.332502,1.804896 L6.10884414,1.8 L6.10113648,3.978864 C5.83601947,3.98376 5.57568652,3.987936 5.32199811,3.987216 L5.32186522,3.980448 L3.63322268,3.973104 L3.62883729,5.38992 C3.62883729,5.38992 4.53302583,5.3748 4.51787629,5.3928 C5.01369161,5.394816 5.17409073,5.70744 5.22020381,5.976864 L5.21196459,8.459712 C5.24625039,8.46 5.29076879,8.461728 5.34140016,8.469504 C5.3006027,8.46936 5.25701454,8.468928 5.21209748,8.469216 L5.20013731,11.947392 C5.17781167,12.116448 5.08505394,12.385728 4.73874069,12.385008 C4.7542889,12.399984 3.84877145,12.38112 3.84877145,12.38112 L3.6,13.964832 L5.19322699,13.97088 C5.48957333,13.972608 5.78140137,13.979088 6.0677809,13.982112 L6.06100348,16.186464 L7.283864,16.191504 L7.29117299,14.01048 C7.62698787,14.019408 7.95190571,14.02344 8.26911589,14.024448 L8.26127533,16.195392 L9.48573054,16.2 L9.49343821,13.999824 C11.5521814,13.879872 12.9947103,13.3236 13.1804916,11.229984 C13.3306581,9.544032 12.601088,8.788608 11.4336429,8.480016 C12.1446083,8.091072 12.5908554,7.402752 12.4907887,6.25248 L12.4907887,6.25248 Z M10.762146,10.958976 C10.7574949,12.606336 8.15496275,12.408768 7.3253259,12.40632 L7.3354256,9.485856 C8.16532822,9.489312 10.7679932,9.240912 10.762146,10.958976 Z M10.2065299,6.8364 C10.2012142,8.335152 8.0308428,8.151696 7.33981099,8.149104 L7.34871467,5.500224 C8.03987937,5.502816 10.2117126,5.27328 10.2065299,6.8364 Z" id="path-2"></path>
        <filter x="-72.9%" y="-34.7%" width="245.8%" height="197.2%" filterUnits="objectBoundingBox" id="filter-3">
            <feOffset dx="0" dy="2" in="SourceAlpha" result="shadowOffsetOuter1"></feOffset>
            <feGaussianBlur stdDeviation="2" in="shadowOffsetOuter1" result="shadowBlurOuter1"></feGaussianBlur>
            <feColorMatrix values="0 0 0 0 0   0 0 0 0 0   0 0 0 0 0  0 0 0 0.18 0" type="matrix" in="shadowBlurOuter1"></feColorMatrix>
        </filter>
    </defs>
    <g id="Page-1" stroke="none" stroke-width="1" fill="none" fill-rule="evenodd">
        <g id="atm" transform="translate(-3.000000, 1.000000)">
            <polygon id="Shape" points="0 0 24 0 24 24 0 24"></polygon>
            <g id="Group-8" transform="translate(4.000000, 0.000000)" fill-rule="nonzero">
                <path d="M8.4,0 C3.768,0 0,3.768 0,8.4 C0,14.7 8.4,24 8.4,24 C8.4,24 16.8,14.7 16.8,8.4 C16.8,3.768 13.032,0 8.4,0 Z" id="Shape" fill="url(#linearGradient-1)"></path>
                <g id="Shape-Copy">
                    <use fill="black" fill-opacity="1" filter="url(#filter-3)" xlink:href="#path-2"></use>
                    <use fill="#FFFFFF" fill-rule="evenodd" xlink:href="#path-2"></use>
                </g>
            </g>
        </g>
    </g>
</svg>