<?xml version="1.0" encoding="UTF-8"?>
<svg width="124px" height="27px" viewBox="0 0 124 27" version="1.1" xmlns="http://www.w3.org/2000/svg" xmlns:xlink="http://www.w3.org/1999/xlink">
    <!-- Generator: Sketch 46 (44423) - http://www.bohemiancoding.com/sketch -->
    <title>logo</title>
    <desc>Created with Sketch.</desc>
    <defs></defs>
    <g id="Page-1" stroke="none" stroke-width="1" fill="none" fill-rule="evenodd">
        <g id="logo" fill="#FFFFFF">
            <g id="Page-1-Copy">
                <path d="M20.462178,9.99022635 L18.2649334,10.9749518 L18.2649334,15.7528243 L15.037037,18.3707347 L15.2740065,19.1786085 L17.6679943,20.25 L20.7407407,18.0740253 L20.7407407,14.1688514 L22.8148148,12.6779147 L22.8148148,3.54465661 L22.1416766,3.11538462 L14.5326579,6.5769174 L14,7.40094577 L14,15.6380762 L14.2652563,16.0961538 L16.3523794,14.5958751 L16.3523794,8.31854981 L20.462178,6.44925223 L20.462178,9.99022635 Z M25.5421822,0 L26.6386825,0.700377835 L28,17.4160332 L16.061903,27 L11.9369608,27 L0,17.4160332 L1.36123007,0.700377835 L2.45755559,0 L25.5421822,0 Z M7.0191398,14.3690947 L7.0191398,6.44925223 L11.1288367,8.31854981 L11.1288367,14.5958751 L13.216234,16.0961538 L13.4814815,15.6380762 L13.4814815,7.40094577 L12.9487554,6.5769174 L5.34004,3.11538462 L4.66666667,3.54465661 L4.66666667,12.6779147 L7.0191398,14.3690947 Z M10.2535919,15.7529609 L10.2535919,10.9749442 L7.77777778,9.86538462 L7.77777778,18.0740578 L10.8506033,20.25 L13.2445191,19.1787041 L13.4814815,18.3707475 L10.2535919,15.7529609 Z M14.9527348,22.8461538 L17.1111111,20.6337655 C16.2678501,20.0702668 15.1833893,19.7307692 13.9999106,19.7307692 C12.8166107,19.7307692 11.732418,20.0702668 10.8888889,20.6337655 L13.0476227,22.8461538 L14.9527348,22.8461538 Z" id="Combined-Shape"></path>
                <path d="M94,21.4680566 C94,21.6101237 93.9460547,21.7339858 93.8376454,21.8407488 C93.7297548,21.9469163 93.6032773,22 93.4594231,22 L89.8922902,22 C89.7473986,22 89.6256759,21.9469163 89.5267762,21.8407488 C89.4278765,21.7339858 89.3786859,21.6101237 89.3786859,21.4680566 L89.3786859,9.73933838 C89.3786859,8.95967081 89.3194671,8.32572835 89.2025857,7.8377662 C89.085099,7.35056967 88.8740726,6.97353894 88.5678639,6.70760978 C88.26105,6.44159554 87.8463455,6.26464971 87.3242691,6.17558131 C86.8011553,6.08710839 86.1352248,6.04261672 85.323884,6.04261672 L85.323884,21.4680566 C85.323884,21.6101237 85.2704574,21.7339858 85.1620481,21.8407488 C85.0536388,21.9469163 84.9277664,22 84.7833071,22 L81.2160877,22 C81.0716284,22 80.9499921,21.9469163 80.8510924,21.8407488 C80.7521927,21.7339858 80.7029157,21.6101237 80.7029157,21.4680566 L80.7029157,6.04261672 C79.8919208,6.04261672 79.2252122,6.08710839 78.7026171,6.17558131 C78.180022,6.26464971 77.7653175,6.44159554 77.4590223,6.70760978 C77.1524678,6.97353894 76.9364272,7.35056967 76.8108142,7.8377662 C76.6841638,8.32572835 76.6216599,8.95967081 76.6216599,9.73933838 L76.6216599,21.4680566 C76.6216599,21.6101237 76.5720371,21.7339858 76.472878,21.8407488 C76.3733732,21.9469163 76.2519962,22 76.1076234,22 L72.5404904,22 C72.3958582,22 72.2702452,21.9469163 72.1617494,21.8407488 C72.0539453,21.7339858 72,21.6101237 72,21.4680566 L72,9.73933838 C72,8.09050949 72.2157812,6.76094874 72.6486404,5.75014568 C73.0810673,4.73934263 73.7475165,3.95499621 74.6485068,3.39651093 C75.5490648,2.83802566 76.693414,2.4653335 78.0807765,2.27945531 C79.468139,2.09315177 81.1081971,2 83.0003458,2 C84.8918029,2 86.5314288,2.09315177 87.9187913,2.27945531 C89.3062402,2.4653335 90.4502436,2.83802566 91.351061,3.39651093 C92.2517919,3.95499621 92.919365,4.73934263 93.3515325,5.75014568 C93.7842188,6.76094874 94,8.09050949 94,9.73933838 L94,21.4680566 Z" id="Fill-7"></path>
                <path d="M102.882297,22.4552649 C102.882297,22.6007994 102.822967,22.7276324 102.70622,22.8370049 C102.58756,22.9456683 102.450718,23 102.29378,23 L98.7062201,23 C98.5492823,23 98.4124402,22.9456683 98.2937799,22.8370049 C98.1770335,22.7276324 98.1177033,22.6007994 98.1177033,22.4552649 L98.1177033,7.93793195 C98.1177033,7.79266334 98.1770335,7.66556439 98.2937799,7.55628056 C98.4124402,7.44752853 98.5492823,7.39319683 98.7062201,7.39319683 L102.29378,7.39319683 C102.450718,7.39319683 102.58756,7.44752853 102.70622,7.55628056 C102.822967,7.66556439 102.882297,7.79266334 102.882297,7.93793195 L102.882297,22.4552649 Z M103,5.07785096 C103,5.22338546 102.94067,5.35021852 102.822967,5.45897056 C102.70622,5.56825438 102.567464,5.62258608 102.411483,5.62258608 L98.5885167,5.62258608 C98.4315789,5.62258608 98.2937799,5.56825438 98.1770335,5.45897056 C98.0593301,5.35021852 98,5.22338546 98,5.07785096 L98,2.54473513 C98,2.39955515 98.0593301,2.27236756 98.1770335,2.16334963 C98.2937799,2.05468623 98.4315789,2 98.5885167,2 L102.411483,2 C102.567464,2 102.70622,2.05468623 102.822967,2.16334963 C102.94067,2.27236756 103,2.39955515 103,2.54473513 L103,5.07785096 Z" id="Fill-8"></path>
                <path d="M109,21.4524553 C109,21.591781 108.954208,21.717785 108.86423,21.8305522 C108.774252,21.9439134 108.662583,22 108.530829,22 L105.51898,22 C105.387226,22 105.268327,21.9439134 105.161478,21.8305522 C105.053826,21.717785 105,21.591781 105,21.4524553 L105,2.52149535 C105,2.38267882 105.053826,2.26074767 105.161478,2.15663528 C105.268327,2.05226833 105.387226,2 105.51898,2 L108.530829,2 C108.662583,2 108.774252,2.05226833 108.86423,2.15663528 C108.954208,2.26074767 109,2.38267882 109,2.52149535 L109,21.4524553 Z" id="Fill-9"></path>
                <path d="M116,21.4524553 C116,21.591781 115.955011,21.717785 115.86423,21.8305522 C115.773448,21.9439134 115.662583,22 115.530829,22 L112.51898,22 C112.386423,22 112.267524,21.9439134 112.160675,21.8305522 C112.053826,21.717785 112,21.591781 112,21.4524553 L112,2.52149535 C112,2.38267882 112.053826,2.26074767 112.160675,2.15663528 C112.267524,2.05226833 112.386423,2 112.51898,2 L115.530829,2 C115.662583,2 115.773448,2.05226833 115.86423,2.15663528 C115.955011,2.26074767 116,2.38267882 116,2.52149535 L116,21.4524553 Z" id="Fill-10"></path>
                <path d="M123.882297,22.4552649 C123.882297,22.6007994 123.822967,22.7276324 123.70622,22.8370049 C123.588517,22.9456683 123.450718,23 123.29378,23 L119.70622,23 C119.549282,23 119.41244,22.9456683 119.29378,22.8370049 C119.177033,22.7276324 119.117703,22.6007994 119.117703,22.4552649 L119.117703,7.93793195 C119.117703,7.79266334 119.177033,7.66556439 119.29378,7.55628056 C119.41244,7.44752853 119.549282,7.39319683 119.70622,7.39319683 L123.29378,7.39319683 C123.450718,7.39319683 123.588517,7.44752853 123.70622,7.55628056 C123.822967,7.66556439 123.882297,7.79266334 123.882297,7.93793195 L123.882297,22.4552649 Z M124,5.07785096 C124,5.22338546 123.94067,5.35021852 123.822967,5.45897056 C123.70622,5.56825438 123.568421,5.62258608 123.411483,5.62258608 L119.588517,5.62258608 C119.431579,5.62258608 119.29378,5.56825438 119.177033,5.45897056 C119.05933,5.35021852 119,5.22338546 119,5.07785096 L119,2.54473513 C119,2.39955515 119.05933,2.27236756 119.177033,2.16334963 C119.29378,2.05468623 119.431579,2 119.588517,2 L123.411483,2 C123.568421,2 123.70622,2.05468623 123.822967,2.16334963 C123.94067,2.27236756 124,2.39955515 124,2.54473513 L124,5.07785096 Z" id="Fill-11"></path>
                <path d="M51,21.4679921 C51,21.6100764 50.9512868,21.7339535 50.8547047,21.8407294 C50.7580382,21.9469098 50.6393368,22 50.4986005,22 L46.961788,22 C46.8205451,22 46.7064871,21.9469098 46.6186852,21.8407294 C46.5305456,21.7339535 46.4864758,21.6100764 46.4864758,21.4679921 L46.4864758,9.6051094 C46.4864758,8.86023028 46.42493,8.24858711 46.3019229,7.7696694 C46.1784937,7.29109201 45.9892975,6.91444098 45.7344187,6.63929088 C45.4792022,6.36439603 45.1536598,6.17364572 44.7578759,6.06746535 C43.6249781,5.76245203 43.2492873,5.97038858 42.5132709,6.06746535 L42.5132709,21.4679921 C42.5132709,21.6100764 42.4643045,21.7339535 42.3679757,21.8407294 C42.2709715,21.9469098 42.1523545,22 42.0116182,22 L38.5014839,22 C38.3601566,22 38.2414552,21.9469098 38.145042,21.8407294 C38.0480378,21.7339535 38,21.6100764 38,21.4679921 L38,4.09904465 C38,3.49624984 38.0963288,3.09279847 38.290084,2.88877561 C38.4835859,2.68517815 38.8355533,2.53866966 39.3458174,2.44993078 C39.6977004,2.39658535 40.1334173,2.34349517 40.6524616,2.29014974 C43.2870252,2.02095528 43.7892689,1.78936636 46.2755824,2.31695008 C47.2783814,2.52956606 48.1319172,2.92000012 48.8355987,3.48740148 C49.5393647,4.05480283 50.0763071,4.83039598 50.4460038,5.81477649 C50.8151095,6.79881668 51,8.06226098 51,9.6051094 L51,21.4679921 Z" id="Fill-12"></path>
                <path d="M55,2.53200771 C55,2.38966821 55.048545,2.26604639 55.1451283,2.15961082 C55.2418805,2.05309017 55.360499,2 55.5012372,2 L59.0380956,2 C59.1793403,2 59.2934843,2.05309017 59.3812029,2.15961082 C59.4693436,2.26604639 59.513414,2.38966821 59.513414,2.53200771 L59.513414,14.3948523 C59.513414,15.1397311 59.575045,15.7516293 59.6978004,16.2300364 C59.8214845,16.7092092 60.0103454,17.0858686 60.2652275,17.3609335 C60.5207006,17.635573 60.8464161,17.8263233 61.2420364,17.9327588 C62.3750333,18.2376019 62.7506446,18.0295803 63.4866704,17.9327588 L63.4866704,2.53200771 C63.4866704,2.38966821 63.5358064,2.26604639 63.6317987,2.15961082 C63.7289731,2.05309017 63.8477604,2 63.9882453,2 L67.4986784,2 C67.6396698,2 67.7585416,2.05309017 67.854534,2.15961082 C67.9519616,2.26604639 68,2.38966821 68,2.53200771 L68,19.9009236 C68,20.503463 67.9036699,20.9074247 67.7099123,21.1111922 C67.516239,21.3147896 67.1644359,21.4609577 66.6541651,21.5500369 C66.3018554,21.6033823 65.8666394,21.6564725 65.3473351,21.7098179 C62.7126529,21.9789272 62.2108247,22.2106011 59.7243101,21.6833579 C58.7215825,21.4701464 57.8679512,21.0799677 57.164345,20.5125666 C56.4604854,19.9451654 55.923536,19.1695725 55.5538346,18.1851924 C55.1847241,17.2014078 55,15.9379554 55,14.3948523 L55,2.53200771 Z" id="Fill-13"></path>
            </g>
        </g>
    </g>
</svg>