<?xml version="1.0" encoding="UTF-8"?>
<svg width="896px" height="160px" viewBox="0 0 896 160" version="1.1" xmlns="http://www.w3.org/2000/svg" xmlns:xlink="http://www.w3.org/1999/xlink">
    <defs></defs>
    <g id="Page-1" stroke="none" stroke-width="1" fill="none" fill-rule="evenodd">
        <g id="hacker-news">
            <path d="M226,49.8161571 L240.448471,49.8161571 L240.448471,74.486676 L262.563478,74.486676 L262.563478,49.8161571 L277.110238,49.8161571 L277.110238,113.900533 L262.563478,113.900533 L262.563478,87.1659467 L240.448471,87.1659467 L240.448471,113.900533 L226,113.900533 L226,49.8161571 Z M291.884616,100.336662 C291.884616,95.2256126 294.04695,91.2285698 298.371684,88.3454137 C302.696419,85.4622577 309.674862,83.5292616 319.307224,82.5463675 C319.176172,80.3840004 318.520919,78.6639615 317.341446,77.3861992 C316.161973,76.1084368 314.26174,75.4695652 311.640689,75.4695652 C309.543848,75.4695652 307.447039,75.862717 305.350198,76.6490323 C303.253357,77.4353476 301.025497,78.5165149 298.666551,79.8925666 L293.555527,70.3585414 C296.700789,68.4582794 299.993434,66.9184351 303.433564,65.7389621 C306.873693,64.5594892 310.526728,63.9697616 314.392778,63.9697616 C320.683301,63.9697616 325.483028,65.7553258 328.792105,69.3265077 C332.101182,72.8976897 333.755696,78.4509581 333.755696,85.9864797 L333.755696,113.900533 L321.961025,113.900533 L320.879847,108.887798 L320.58498,108.887798 C318.48814,110.722534 316.276661,112.213234 313.950478,113.359944 C311.624296,114.506654 309.08519,115.08 306.333087,115.08 C304.105194,115.08 302.106672,114.70323 300.337463,113.949677 C298.568253,113.196125 297.061172,112.147721 295.816173,110.804432 C294.571173,109.461143 293.604675,107.904918 292.916649,106.135708 C292.228624,104.366499 291.884616,102.433503 291.884616,100.336662 Z M305.645065,99.2554839 C305.645065,100.828114 306.152886,101.991188 307.168543,102.744741 C308.1842,103.498293 309.54385,103.875063 311.247533,103.875063 C312.951216,103.875063 314.392773,103.514674 315.572245,102.793885 C316.751718,102.073096 317.996699,101.057454 319.307224,99.7469285 L319.307224,91.1957924 C314.130649,91.9165814 310.55952,92.9649861 308.593732,94.3410379 C306.627944,95.7170896 305.645065,97.3552219 305.645065,99.2554839 Z M345.876272,89.5248808 C345.876272,85.4622518 346.564288,81.8419794 347.940339,78.6639551 C349.316391,75.4859308 351.167481,72.8157752 353.493663,70.6534081 C355.819846,68.4910411 358.522764,66.8365275 361.602499,65.6898177 C364.682234,64.5431079 367.892974,63.9697616 371.234813,63.9697616 C374.249022,63.9697616 376.968322,64.4775826 379.392794,65.4932398 C381.817266,66.5088971 383.84855,67.8685469 385.486707,69.57223 L378.901349,78.5165217 C376.60793,76.6162598 374.347307,75.6661431 372.119414,75.6661431 C368.580995,75.6661431 365.79617,76.9111236 363.764856,79.401122 C361.733541,81.8911204 360.717899,85.265673 360.717899,89.5248808 C360.717899,93.7840886 361.749922,97.1586411 363.814,99.6486396 C365.878078,102.138638 368.482708,103.383619 371.627969,103.383619 C373.397179,103.383619 375.002548,103.023229 376.444126,102.30244 C377.885704,101.581651 379.19621,100.762585 380.375683,99.8452174 L386.174729,108.986087 C383.815783,111.082928 381.194772,112.622772 378.311616,113.605666 C375.42846,114.58856 372.643635,115.08 369.957058,115.08 C366.549691,115.08 363.388096,114.506654 360.472177,113.359944 C357.556258,112.213234 355.017152,110.55872 352.854785,108.396353 C350.692418,106.233986 348.988761,103.563831 347.743762,100.385806 C346.498762,97.2077821 345.876272,93.5875098 345.876272,89.5248808 Z M397.214128,45 L411.269443,45 L411.269443,84.5121459 L411.662599,84.5121459 L427.093959,65.1492286 L442.820187,65.1492286 L425.717914,85.2001683 L444.097943,113.900533 L428.470004,113.900533 L417.461645,94.9307714 L411.269443,101.909285 L411.269443,113.900533 L397.214128,113.900533 L397.214128,45 Z M448.060539,89.5248808 C448.060539,85.5933043 448.715792,82.0385573 450.026317,78.860533 C451.336843,75.6825087 453.056881,72.9959717 455.186485,70.8008415 C457.316089,68.6057113 459.756906,66.9184351 462.50901,65.7389621 C465.261113,64.5594892 468.111464,63.9697616 471.060146,63.9697616 C474.533038,63.9697616 477.563583,64.5594892 480.151871,65.7389621 C482.740159,66.9184351 484.902493,68.5565674 486.63894,70.6534081 C488.375386,72.7502489 489.669511,75.2238287 490.521352,78.0742216 C491.373194,80.9246145 491.799108,84.0206846 491.799108,87.3625245 C491.799108,88.67305 491.733583,89.8688866 491.60253,90.9500701 C491.471478,92.0312537 491.340427,92.8667011 491.209375,93.4564376 L462.017565,93.4564376 C462.672828,97.1914352 464.130766,99.8943535 466.391422,101.565273 C468.652079,103.236193 471.420522,104.071641 474.696836,104.071641 C478.169729,104.071641 481.675332,102.990474 485.21375,100.828107 L490.029907,109.57582 C487.539909,111.279504 484.771466,112.622772 481.724494,113.605666 C478.677522,114.58856 475.67974,115.08 472.731058,115.08 C469.258165,115.08 466.014663,114.506654 463.000454,113.359944 C459.986246,112.213234 457.365234,110.542339 455.137341,108.347209 C452.909448,106.152079 451.173027,103.481923 449.928028,100.336662 C448.683029,97.1914008 448.060539,93.5875098 448.060539,89.5248808 Z M479.512993,84.5121459 C479.512993,81.6945161 478.890503,79.4011309 477.645504,77.6319215 C476.400504,75.8627121 474.303695,74.9781206 471.355013,74.9781206 C469.061593,74.9781206 467.04669,75.7480428 465.310244,77.2879102 C463.573798,78.8277777 462.443487,81.2358321 461.919276,84.5121459 L479.512993,84.5121459 Z M504.411129,65.1492286 L516.2058,65.1492286 L517.188689,73.7003647 L517.581844,73.7003647 C519.351054,70.3585247 521.480626,67.9013262 523.970624,66.3286957 C526.460623,64.7560651 528.950584,63.9697616 531.440582,63.9697616 C532.816634,63.9697616 533.946945,64.0516682 534.83155,64.2154839 C535.716155,64.3792996 536.518839,64.6250194 537.239628,64.9526508 L534.880694,77.4353436 C533.963326,77.1732385 533.111498,76.9766626 532.325182,76.8456101 C531.538867,76.7145575 530.621513,76.6490323 529.573093,76.6490323 C527.738357,76.6490323 525.821742,77.3042852 523.823191,78.6148107 C521.824639,79.9253361 520.170126,82.251484 518.8596,85.593324 L518.8596,113.900533 L504.411129,113.900533 L504.411129,65.1492286 Z M569.147317,65.1492286 L580.941987,65.1492286 L581.924877,71.3414306 L582.318032,71.3414306 C584.414873,69.3756423 586.708258,67.6556034 589.198257,66.1812623 C591.688255,64.7069211 594.604131,63.9697616 597.945971,63.9697616 C603.253599,63.9697616 607.10321,65.7061818 609.494919,69.1790743 C611.886628,72.6519669 613.082464,77.4680758 613.082464,83.6275456 L613.082464,113.900533 L598.633993,113.900533 L598.633993,85.4950351 C598.633993,81.9566162 598.158935,79.5321805 597.208804,78.221655 C596.258673,76.9111295 594.73521,76.2558766 592.638369,76.2558766 C590.803633,76.2558766 589.231026,76.6654096 587.920501,77.4844881 C586.609975,78.3035665 585.168419,79.4666404 583.595788,80.9737447 L583.595788,113.900533 L569.147317,113.900533 L569.147317,65.1492286 Z M625.104752,89.5248808 C625.104752,85.5933043 625.760005,82.0385573 627.07053,78.860533 C628.381056,75.6825087 630.101095,72.9959717 632.230699,70.8008415 C634.360302,68.6057113 636.80112,66.9184351 639.553223,65.7389621 C642.305327,64.5594892 645.155677,63.9697616 648.104359,63.9697616 C651.577252,63.9697616 654.607796,64.5594892 657.196084,65.7389621 C659.784372,66.9184351 661.946707,68.5565674 663.683153,70.6534081 C665.419599,72.7502489 666.713724,75.2238287 667.565565,78.0742216 C668.417407,80.9246145 668.843321,84.0206846 668.843321,87.3625245 C668.843321,88.67305 668.777796,89.8688866 668.646743,90.9500701 C668.515691,92.0312537 668.38464,92.8667011 668.253588,93.4564376 L639.061779,93.4564376 C639.717041,97.1914352 641.174979,99.8943535 643.435635,101.565273 C645.696292,103.236193 648.464735,104.071641 651.741049,104.071641 C655.213942,104.071641 658.719545,102.990474 662.257964,100.828107 L667.074121,109.57582 C664.584122,111.279504 661.815679,112.622772 658.768707,113.605666 C655.721735,114.58856 652.723953,115.08 649.775271,115.08 C646.302378,115.08 643.058876,114.506654 640.044668,113.359944 C637.030459,112.213234 634.409447,110.542339 632.181554,108.347209 C629.953661,106.152079 628.217241,103.481923 626.972241,100.336662 C625.727242,97.1914008 625.104752,93.5875098 625.104752,89.5248808 Z M656.557206,84.5121459 C656.557206,81.6945161 655.934716,79.4011309 654.689717,77.6319215 C653.444718,75.8627121 651.347908,74.9781206 648.399226,74.9781206 C646.105806,74.9781206 644.090904,75.7480428 642.354457,77.2879102 C640.618011,78.8277777 639.4877,81.2358321 638.96349,84.5121459 L656.557206,84.5121459 Z M676.835763,65.1492286 L691.185945,65.1492286 L695.903814,87.7556802 C696.296971,90.1801524 696.65736,92.5718255 696.984992,94.9307714 C697.312623,97.2897173 697.673012,99.714153 698.06617,102.204151 L698.459326,102.204151 C698.918009,99.714153 699.360305,97.2569546 699.786226,94.8324825 C700.212147,92.4080103 700.719968,90.0490998 701.309704,87.7556802 L706.715595,65.1492286 L719.198288,65.1492286 L724.702467,87.7556802 C725.292204,90.1801524 725.816406,92.5718255 726.27509,94.9307714 C726.733774,97.2897173 727.225213,99.714153 727.749424,102.204151 L728.142579,102.204151 C728.601263,99.714153 728.978034,97.2897173 729.272902,94.9307714 C729.56777,92.5718255 729.944541,90.1801524 730.403225,87.7556802 L735.022804,65.1492286 L748.390097,65.1492286 L736.693715,113.900533 L719.788021,113.900533 L715.36502,94.4393268 C714.84081,92.1459072 714.382133,89.852522 713.988975,87.5591024 C713.595817,85.2656828 713.169903,82.8084844 712.711219,80.1874334 L712.318063,80.1874334 C711.859379,82.8084844 711.449846,85.2656828 711.089452,87.5591024 C710.729057,89.852522 710.319524,92.1459072 709.86084,94.4393268 L705.536128,113.900533 L689.023589,113.900533 L676.835763,65.1492286 Z M761.886718,99.2554839 C764.114612,100.959167 766.244184,102.23691 768.275498,103.088752 C770.306813,103.940593 772.370859,104.366508 774.4677,104.366508 C776.630067,104.366508 778.202674,104.006119 779.185568,103.28533 C780.168462,102.564541 780.659902,101.548899 780.659902,100.238373 C780.659902,99.4520578 780.381419,98.7476609 779.824446,98.1251613 C779.267473,97.5026617 778.513932,96.9293154 777.563801,96.4051052 C776.61367,95.880895 775.548884,95.4058366 774.369411,94.9799158 C773.189938,94.5539951 771.97772,94.0789367 770.732721,93.5547265 C769.225617,92.96499 767.718535,92.2769745 766.211431,91.4906592 C764.704326,90.7043439 763.328295,89.7378458 762.083296,88.591136 C760.838297,87.4444262 759.822655,86.1011578 759.03634,84.5612903 C758.250024,83.0214229 757.856873,81.2358587 757.856873,79.2045442 C757.856873,76.9766509 758.299168,74.9126042 759.183773,73.0123422 C760.068378,71.1120803 761.329739,69.5067106 762.967896,68.1961851 C764.606053,66.8856596 766.571812,65.8536363 768.865232,65.1000842 C771.158651,64.346532 773.714138,63.9697616 776.531767,63.9697616 C780.266765,63.9697616 783.54303,64.6086332 786.360659,65.8863955 C789.178289,67.1641579 791.635488,68.589333 793.732328,70.1619635 L787.24526,78.8113885 C785.47605,77.500863 783.73963,76.485221 782.035947,75.764432 C780.332264,75.043643 778.628606,74.6832539 776.924923,74.6832539 C773.255452,74.6832539 771.420743,75.960997 771.420743,78.5165217 C771.420743,79.302837 771.682845,79.9744713 772.207055,80.5314446 C772.731265,81.0884179 773.435662,81.5962389 774.320267,82.0549229 C775.204871,82.5136068 776.220513,82.9559025 777.367223,83.3818233 C778.513933,83.8077441 779.70977,84.2500398 780.954769,84.7087237 C782.527399,85.2984602 784.083625,85.9700944 785.623492,86.7236466 C787.16336,87.4771987 788.572154,88.4109341 789.849916,89.5248808 C791.127678,90.6388274 792.159702,91.9984772 792.946017,93.603871 C793.732332,95.2092647 794.125484,97.1258795 794.125484,99.3537728 C794.125484,101.581666 793.69957,103.645713 792.847728,105.545975 C791.995886,107.446237 790.718143,109.10075 789.01446,110.509565 C787.310777,111.91838 785.213968,113.03231 782.723969,113.851388 C780.233971,114.670467 777.350858,115.08 774.074544,115.08 C770.863757,115.08 767.571111,114.45751 764.196508,113.212511 C760.821905,111.967511 757.889648,110.329379 755.39965,108.298065 L761.886718,99.2554839 Z" id="Hacker-news" fill="#222222"></path>
            <path d="M84,36 L84,123.819916 L171.819712,123.819916 L171.819712,36 L84,36 Z M131.812993,86.6698283 L131.812993,108.207369 L124.006923,108.207369 L124.006923,86.6698283 L104.822923,48.6850673 L113.860789,48.6850673 L127.890357,77.2840464 L142.47794,48.6850673 L150.951053,48.6850673 L131.812993,86.6698283 Z" id="Hacker_News" fill="#000000" fill-rule="nonzero"></path>
        </g>
    </g>
</svg>