<?xml version="1.0" encoding="UTF-8"?>
<svg width="896px" height="160px" viewBox="0 0 896 160" version="1.1" xmlns="http://www.w3.org/2000/svg" xmlns:xlink="http://www.w3.org/1999/xlink">
    <g id="Page-1" stroke="none" stroke-width="1" fill="none" fill-rule="evenodd">
        <g id="reddit">
            <g id="Group-30" transform="translate(204.000000, 21.000000)" fill-rule="nonzero">
                <g id="Group-33">
                    <circle id="Oval" fill="#100F0D" cx="58.9565357" cy="58.9565357" r="58.9126039"></circle>
                    <path d="M98.2462489,58.9565357 C98.0705215,54.2118965 94.0873676,50.5069776 89.3280844,50.668061 C87.2193559,50.7412807 85.2131349,51.6052737 83.6901643,53.0550246 C76.983236,48.4861127 69.1047919,45.9819975 61.0066885,45.8062702 L64.828759,27.4281151 L77.4371984,30.0786697 C77.7886532,33.3149823 80.6881549,35.658014 83.9244675,35.3065593 C87.1607801,34.9551045 89.5038118,32.0556027 89.152357,28.8192902 C88.8009023,25.5829776 85.9014005,23.2399459 82.6650879,23.5914007 C80.8053065,23.781772 79.1358964,24.8654241 78.2133277,26.4762585 L63.7743947,23.5914007 C62.7932501,23.3717414 61.8121056,23.9867873 61.5924464,24.9825757 L61.5924464,25.0118636 L57.2431938,45.4548154 C49.0425827,45.5866109 41.0616309,48.10537 34.2668389,52.7035698 C30.8108671,49.4526133 25.3633184,49.6136967 22.1123619,53.0843125 C18.8614054,56.5402842 19.0224888,61.987833 22.4931045,65.2387895 C23.1667262,65.8684793 23.9428554,66.4103054 24.8068484,66.791048 C24.7482726,67.655041 24.7482726,68.5190339 24.8068484,69.3830269 C24.8068484,82.5772243 40.182994,93.3112383 59.146907,93.3112383 C78.11082,93.3112383 93.4869657,82.5918682 93.4869657,69.3830269 C93.5455415,68.5190339 93.5455415,67.655041 93.4869657,66.791048 C96.4450433,65.3120093 98.3048247,62.266068 98.2462489,58.9565357 Z M39.333645,64.8580469 C39.333645,61.6070903 41.9841997,58.9565357 45.2351562,58.9565357 C48.4861127,58.9565357 51.1366673,61.6070903 51.1366673,64.8580469 C51.1366673,68.1090034 48.4861127,70.759558 45.2351562,70.759558 C41.9695557,70.7302701 39.333645,68.1090034 39.333645,64.8580469 Z M73.5565521,81.0542536 C69.3683829,84.2027025 64.243001,85.8135368 59.0004675,85.5938776 C53.7579341,85.8135368 48.6325522,84.2027025 44.444383,81.0542536 C43.8879129,80.380632 43.9904206,79.3701996 44.6640422,78.8137295 C45.2498001,78.3304793 46.0845052,78.3304793 46.6849071,78.8137295 C50.2287425,81.4057084 54.5487073,82.7236637 58.9418918,82.5186485 C63.3350762,82.7529516 67.6696849,81.4935721 71.2574522,78.9308811 C71.901786,78.3011914 72.9561502,78.3158353 73.58584,78.960169 C74.2155298,79.6045028 74.2008858,80.658867 73.5565521,81.2885568 L73.5565521,81.2885568 L73.5565521,81.0542536 L73.5565521,81.0542536 Z M72.5021878,70.9645733 C69.2512313,70.9645733 66.6006767,68.3140186 66.6006767,65.0630621 C66.6006767,61.8121056 69.2512313,59.161551 72.5021878,59.161551 C75.7531444,59.161551 78.403699,61.8121056 78.403699,65.0630621 C78.5354945,68.3140186 76.0020915,71.052437 72.751135,71.1842325 L72.458256,71.1842325 L72.5021878,70.9645733 Z" id="Shape" fill="#FFFFFF"></path>
                </g>
                <g id="Group-31" transform="translate(162.000000, 9.000000)" fill="#000000">
                    <ellipse id="Oval" cx="256.975315" cy="19.1242987" rx="11.492438" ry="11.5418423"></ellipse>
                    <path d="M94.1098524,68.2403139 C98.5558321,68.5562402 102.414607,65.1863593 102.750153,60.7002052 C102.771124,60.4474642 102.771124,60.1525996 102.771124,59.8787967 C102.708209,58.3202268 102.519465,56.7405951 102.204891,55.2030869 C99.4785826,40.5862282 87.0424225,29.8236708 72.257443,29.2339416 C55.4172464,29.2339416 41.3453014,44.7775176 41.3453014,63.8594686 C41.3453014,82.9414197 55.1865588,98.5060574 72.2364714,98.5060574 C81.2752319,98.8641073 90.0413616,95.1993617 96.1231262,88.4806615 C98.6187469,85.7426332 98.4090309,81.5092202 95.6827226,79.0028713 C95.4730066,78.8133155 95.2842622,78.6448214 95.0745461,78.4973891 C92.3482378,76.7913869 88.8040371,77.1494367 86.4971608,79.3819829 C82.7013009,83.173099 77.6052015,85.3424599 72.2364714,85.5109539 C62.9670232,84.7737924 55.5430761,77.4864248 54.6203256,68.1560669 L93.8581932,68.1560669 L94.1098524,68.2403139 Z M72.1735566,42.2711686 C80.3315098,42.8187743 87.1892237,48.6739425 89.0137531,56.6984716 L55.3753032,56.6984716 C57.178861,48.6528807 63.9946317,42.7977125 72.1735566,42.2711686 Z" id="Shape"></path>
                    <path d="M42.0163927,35.9526418 C42.0163927,32.7091314 39.62563,29.9500413 36.4169749,29.549868 C27.7557032,28.0966068 18.9476303,31.3190555 13.2643261,38.0588174 L13.2643261,37.2163472 C13.2643261,33.6147869 10.370245,30.7082645 6.78410103,30.7082645 C3.19795706,30.7082645 0.303875958,33.6147869 0.303875958,37.2163472 L0.303875958,90.5025901 C0.21998955,93.9988416 2.88338302,96.9685492 6.36466898,97.2634138 C9.90886975,97.5161549 13.0126669,94.8202501 13.2433545,91.2608133 C13.2643261,91.0080722 13.2643261,90.7553312 13.2433545,90.5025901 L13.2433545,63.1644307 C12.6771212,52.254441 21.0028473,42.9662066 31.8661372,42.3764774 C32.8308309,42.3132922 33.8164962,42.3343539 34.7811899,42.4396627 L36.0814292,42.4396627 C39.4368856,42.1447981 42.0163927,39.3435845 42.0163927,35.9526418 Z" id="Shape"></path>
                    <path d="M263.434568,42.9451448 C263.434568,39.3435845 260.540487,36.4370622 256.954343,36.4370622 C253.368199,36.4370622 250.474118,39.3435845 250.474118,42.9451448 L250.474118,42.9451448 L250.474118,90.4815283 C250.474118,94.0830886 253.368199,96.989611 256.954343,96.989611 C260.540487,96.989611 263.434568,94.0830886 263.434568,90.4815283 L263.434568,42.9451448 Z" id="Shape"></path>
                    <path d="M167.804062,6.82423313 C167.804062,3.24373459 164.909981,0.33721225 161.344809,0.33721225 L161.344809,0.33721225 L161.344809,0.33721225 C157.779637,0.33721225 154.885555,3.24373459 154.885555,6.82423313 L154.885555,35.8894565 C150.523462,31.4664878 144.525584,29.0654476 138.338961,29.2339416 C121.498765,29.2339416 107.42682,44.7775176 107.42682,63.8594686 C107.42682,82.9414197 121.289049,98.5060574 138.338961,98.5060574 C144.630442,98.6956132 150.712207,96.2735113 155.179158,91.7873572 C156.185795,95.2204235 159.771939,97.1791668 163.19031,96.1682025 C165.769817,95.4099793 167.615318,93.1353096 167.783091,90.4183431 L167.804062,6.82423313 L167.804062,6.82423313 Z M138.297018,85.679448 C128.37745,85.679448 120.303384,75.9910401 120.303384,64.0069009 C120.303384,52.0227617 128.314536,42.3343539 138.297018,42.3343539 C148.279501,42.3343539 156.290653,52.0227617 156.290653,64.0069009 C156.290653,75.9910401 148.279501,85.5741392 138.338961,85.5741392 L138.297018,85.679448 Z" id="Shape"></path>
                    <path d="M235.374565,6.82423313 C235.374565,3.24373459 232.480483,0.33721225 228.915311,0.33721225 L228.915311,0.33721225 C225.350139,0.33721225 222.456058,3.24373459 222.456058,6.82423313 L222.456058,6.82423313 L222.456058,35.8894565 C218.093964,31.4664878 212.096086,29.0654476 205.909464,29.2339416 C189.069267,29.2339416 174.997322,44.7775176 174.997322,63.8594686 C174.997322,82.9414197 188.859551,98.5060574 205.909464,98.5060574 C212.200944,98.6956132 218.282709,96.2735113 222.74966,91.7873572 C223.756297,95.2204235 227.342441,97.1791668 230.760812,96.1682025 C233.340319,95.4099793 235.18582,93.1353096 235.353593,90.4183431 L235.374565,6.82423313 L235.374565,6.82423313 Z M205.888492,85.679448 C195.968924,85.679448 187.894857,75.9910401 187.894857,64.0069009 C187.894857,52.0227617 195.906009,42.3343539 205.888492,42.3343539 C215.870975,42.3343539 223.882127,52.0227617 223.882127,64.0069009 C223.882127,75.9910401 215.870975,85.5741392 205.930435,85.5741392 L205.888492,85.679448 Z" id="Shape"></path>
                    <path d="M297.010103,90.4604666 L297.010103,42.2711686 L302.609521,42.2711686 C305.713318,42.4607244 308.35574,40.080746 308.544485,36.9846679 C308.544485,36.8793591 308.565456,36.7529885 308.565456,36.626618 C308.838087,33.5305399 306.552182,30.7925116 303.490328,30.5187087 C303.322556,30.497647 303.133811,30.497647 302.966038,30.497647 L297.031075,30.497647 L297.031075,21.5464006 C297.073018,18.0712109 294.430596,15.1436268 290.970282,14.8277004 C287.426081,14.5749594 284.343256,17.2708642 284.091596,20.8303009 C284.070625,20.9777332 284.070625,21.1462273 284.070625,21.2936596 L284.070625,30.6450793 L278.450235,30.6450793 C275.346438,30.4555235 272.704016,32.8355019 272.515272,35.9315801 C272.515272,36.0368888 272.4943,36.1632594 272.4943,36.2896299 C272.22167,39.3857081 274.507574,42.1237363 277.569428,42.3975392 C277.737201,42.4186009 277.925945,42.4186009 278.093718,42.4186009 L283.693136,42.4186009 L283.693136,90.4815283 C283.693136,94.0620269 286.587217,96.9685492 290.152389,96.9685492 L290.152389,96.9685492 L290.152389,96.9685492 C293.717562,97.2002285 296.758444,94.4622002 296.989132,90.8817017 C297.010103,90.7553312 297.010103,90.6078989 297.010103,90.4604666 Z" id="Shape"></path>
                </g>
            </g>
        </g>
    </g>
</svg>