<?xml version="1.0" standalone="no"?>
<!DOCTYPE svg PUBLIC "-//W3C//DTD SVG 20010904//EN"
 "http://www.w3.org/TR/2001/REC-SVG-20010904/DTD/svg10.dtd">
<svg version="1.0" xmlns="http://www.w3.org/2000/svg"
 width="192.000000pt" height="192.000000pt" viewBox="0 0 192.000000 192.000000"
 preserveAspectRatio="xMidYMid meet">
<metadata>
Created by potrace 1.11, written by Peter Selinger 2001-2013
</metadata>
<g transform="translate(0.000000,192.000000) scale(0.100000,-0.100000)"
fill="#000000" stroke="none">
<path d="M805 1845 c-328 -61 -590 -286 -695 -596 -12 -35 -24 -73 -26 -84 -2
-11 -6 -31 -9 -45 -18 -78 -13 -263 10 -373 19 -92 85 -230 156 -324 234 -312
639 -438 1008 -313 373 125 624 489 607 878 -3 59 -7 117 -10 130 -33 147 -80
258 -153 360 -124 174 -306 299 -511 353 -96 25 -279 32 -377 14z"/>
</g>
</svg>
